<?xml version="1.0" encoding="iso-8859-1"?>
<!-- Generator: Adobe Illustrator 18.1.1, SVG Export Plug-In . SVG Version: 6.00 Build 0)  -->
<svg version="1.1" id="Capa_1" xmlns="http://www.w3.org/2000/svg" xmlns:xlink="http://www.w3.org/1999/xlink" x="0px" y="0px"  width="14px" height="14px"
	 viewBox="0 0 32 32" style="enable-background:new 0 0 32 32;" xml:space="preserve">
<g>
	<polygon style="fill:#010002;" points="4,18 8,18 8,22 14,16 8,10 8,14 4,14 4,0 0,4 0,30 4,26 	"/>
	<polygon style="fill:#010002;" points="18.001,24 22,24 16,18 10,24 14.001,24 14.001,28 6,28 2,32 26,32 26,28 18.001,28 	"/>
	<polygon style="fill:#010002;" points="14,12 16,14 18,12 18,8 24,8 16,0 8,8 14,8 	"/>
	<polygon style="fill:#010002;" points="28,4 28,14 24,14 24,10 18,16 24,22 24,18 28,18 28,32 32,28 32,0 	"/>
</g>
<g>
</g>
<g>
</g>
<g>
</g>
<g>
</g>
<g>
</g>
<g>
</g>
<g>
</g>
<g>
</g>
<g>
</g>
<g>
</g>
<g>
</g>
<g>
</g>
<g>
</g>
<g>
</g>
<g>
</g>
</svg>
